<mxfile host="app.diagrams.net" modified="2024-05-25T14:44:53.134Z" agent="Mozilla/5.0 (Macintosh; Intel Mac OS X 10_15_7) AppleWebKit/605.1.15 (KHTML, like Gecko) Version/17.4 Safari/605.1.15" etag="-XxtLUrQtax1kzPf2IPu" version="24.4.8" type="github">
  <diagram name="Page-1" id="2cSYW0m4viTbhZRn4C_P">
    <mxGraphModel dx="583" dy="389" grid="1" gridSize="10" guides="1" tooltips="1" connect="1" arrows="1" fold="1" page="1" pageScale="1" pageWidth="827" pageHeight="1169" math="0" shadow="0">
      <root>
        <mxCell id="0" />
        <mxCell id="1" parent="0" />
        <mxCell id="Fn46n3CVI9FHyEEYai1E-1" value="" style="verticalLabelPosition=bottom;html=1;verticalAlign=top;align=center;shape=mxgraph.floorplan.wall;fillColor=strokeColor;direction=south;" vertex="1" parent="1">
          <mxGeometry x="120" y="200" width="10" height="320" as="geometry" />
        </mxCell>
        <mxCell id="Fn46n3CVI9FHyEEYai1E-2" value="" style="verticalLabelPosition=bottom;html=1;verticalAlign=top;align=center;shape=mxgraph.floorplan.wall;fillColor=strokeColor;" vertex="1" parent="1">
          <mxGeometry x="120" y="510" width="220" height="10" as="geometry" />
        </mxCell>
        <mxCell id="Fn46n3CVI9FHyEEYai1E-3" value="" style="verticalLabelPosition=bottom;html=1;verticalAlign=top;align=center;shape=mxgraph.floorplan.wall;fillColor=strokeColor;direction=south;" vertex="1" parent="1">
          <mxGeometry x="340" y="420" width="10" height="100" as="geometry" />
        </mxCell>
        <mxCell id="Fn46n3CVI9FHyEEYai1E-4" value="" style="verticalLabelPosition=bottom;html=1;verticalAlign=top;align=center;shape=mxgraph.floorplan.doorDouble;aspect=fixed;rotation=90;" vertex="1" parent="1">
          <mxGeometry y="320" width="160" height="85" as="geometry" />
        </mxCell>
        <mxCell id="Fn46n3CVI9FHyEEYai1E-5" value="" style="verticalLabelPosition=bottom;html=1;verticalAlign=top;align=center;shape=mxgraph.floorplan.couch;rotation=-180;" vertex="1" parent="1">
          <mxGeometry x="190" y="430" width="150" height="80" as="geometry" />
        </mxCell>
        <mxCell id="Fn46n3CVI9FHyEEYai1E-6" value="" style="verticalLabelPosition=bottom;html=1;verticalAlign=top;align=center;shape=mxgraph.floorplan.chair;shadow=0;" vertex="1" parent="1">
          <mxGeometry x="260" y="280" width="40" height="52" as="geometry" />
        </mxCell>
        <mxCell id="Fn46n3CVI9FHyEEYai1E-7" value="" style="verticalLabelPosition=bottom;html=1;verticalAlign=top;align=center;shape=mxgraph.floorplan.chair;shadow=0;direction=west;" vertex="1" parent="1">
          <mxGeometry x="260" y="368" width="40" height="52" as="geometry" />
        </mxCell>
        <mxCell id="Fn46n3CVI9FHyEEYai1E-8" value="" style="verticalLabelPosition=bottom;html=1;verticalAlign=top;align=center;shape=mxgraph.floorplan.chair;shadow=0;direction=north;points=[[0,0.5,0,0,0]];" vertex="1" parent="1">
          <mxGeometry x="470" y="210" width="52" height="40" as="geometry" />
        </mxCell>
        <mxCell id="Fn46n3CVI9FHyEEYai1E-9" value="" style="verticalLabelPosition=bottom;html=1;verticalAlign=top;align=center;shape=mxgraph.floorplan.chair;shadow=0;direction=south" vertex="1" parent="1">
          <mxGeometry x="358" y="330" width="52" height="40" as="geometry" />
        </mxCell>
        <mxCell id="Fn46n3CVI9FHyEEYai1E-10" value="" style="verticalLabelPosition=bottom;html=1;verticalAlign=top;align=center;shape=mxgraph.floorplan.chair;shadow=0;" vertex="1" parent="1">
          <mxGeometry x="320" y="280" width="40" height="52" as="geometry" />
        </mxCell>
        <mxCell id="Fn46n3CVI9FHyEEYai1E-11" value="" style="verticalLabelPosition=bottom;html=1;verticalAlign=top;align=center;shape=mxgraph.floorplan.chair;shadow=0;direction=west;" vertex="1" parent="1">
          <mxGeometry x="320" y="368" width="40" height="52" as="geometry" />
        </mxCell>
        <mxCell id="Fn46n3CVI9FHyEEYai1E-12" value="" style="shape=rect;shadow=0;html=1;" vertex="1" parent="1">
          <mxGeometry x="190" y="170" width="160" height="100" as="geometry" />
        </mxCell>
        <mxCell id="Fn46n3CVI9FHyEEYai1E-13" style="edgeStyle=orthogonalEdgeStyle;rounded=0;orthogonalLoop=1;jettySize=auto;html=1;entryX=0.5;entryY=0;entryDx=0;entryDy=0;entryPerimeter=0;" edge="1" parent="1" source="Fn46n3CVI9FHyEEYai1E-8" target="Fn46n3CVI9FHyEEYai1E-9">
          <mxGeometry relative="1" as="geometry">
            <Array as="points">
              <mxPoint x="496" y="290" />
              <mxPoint x="440" y="290" />
              <mxPoint x="440" y="350" />
            </Array>
          </mxGeometry>
        </mxCell>
      </root>
    </mxGraphModel>
  </diagram>
</mxfile>
